<svg width="45" height="45" viewBox="0 0 45 45" fill="none" xmlns="http://www.w3.org/2000/svg">
<path d="M45 22.5C45 28.7914 44.3219 36.3836 40.1596 40.4668C36.1006 44.4486 28.6351 45 22.5 45C16.3649 45 8.89936 44.4486 4.84044 40.4668C0.67812 36.3836 6.89257e-10 28.7914 6.89257e-10 22.5C6.89257e-10 16.3649 0.465272 8.81322 4.44703 4.7543C8.53022 0.591977 16.2086 0 22.5 0C28.7914 0 36.4698 0.591977 40.553 4.7543C44.5347 8.81322 45 16.3649 45 22.5Z" fill="#10B981"/>
<g clip-path="url(#clip0_40_50)">
<path d="M31.447 31.452H27.893V25.883C27.893 24.555 27.866 22.846 26.041 22.846C24.188 22.846 23.905 24.291 23.905 25.785V31.452H20.351V20H23.765V21.561H23.811C24.288 20.661 25.448 19.711 27.181 19.711C30.782 19.711 31.448 22.081 31.448 25.166V31.452H31.447ZM16.337 18.433C15.193 18.433 14.274 17.507 14.274 16.368C14.274 15.23 15.194 14.305 16.337 14.305C17.477 14.305 18.401 15.23 18.401 16.368C18.401 17.507 17.476 18.433 16.337 18.433ZM18.119 31.452H14.555V20H18.119V31.452ZM33.225 11H12.771C11.792 11 11 11.774 11 12.729V33.271C11 34.227 11.792 35 12.771 35H33.222C34.2 35 35 34.227 35 33.271V12.729C35 11.774 34.2 11 33.222 11H33.225Z" fill="white"/>
</g>
<defs>
<clipPath id="clip0_40_50">
<rect width="24" height="24" fill="white" transform="translate(11 11)"/>
</clipPath>
</defs>
</svg>
