<svg width="45" height="45" viewBox="0 0 45 45" fill="none" xmlns="http://www.w3.org/2000/svg">
<path d="M45 22.5C45 28.7914 44.3219 36.3836 40.1596 40.4668C36.1006 44.4486 28.6351 45 22.5 45C16.3649 45 8.89936 44.4486 4.84044 40.4668C0.67812 36.3836 6.89257e-10 28.7914 6.89257e-10 22.5C6.89257e-10 16.3649 0.465272 8.81322 4.44703 4.7543C8.53022 0.591977 16.2086 0 22.5 0C28.7914 0 36.4698 0.591977 40.553 4.7543C44.5347 8.81322 45 16.3649 45 22.5Z" fill="#10B981"/>
<g clip-path="url(#clip0_40_46)">
<path d="M23 11.297C16.37 11.297 11 16.67 11 23.297C11 28.6 14.438 33.097 19.205 34.682C19.805 34.795 20.025 34.424 20.025 34.105C20.025 33.82 20.015 33.065 20.01 32.065C16.672 32.789 15.968 30.455 15.968 30.455C15.422 29.07 14.633 28.7 14.633 28.7C13.546 27.956 14.717 27.971 14.717 27.971C15.922 28.055 16.555 29.207 16.555 29.207C17.625 31.042 19.364 30.512 20.05 30.205C20.158 29.429 20.467 28.9 20.81 28.6C18.145 28.3 15.344 27.268 15.344 22.67C15.344 21.36 15.809 20.29 16.579 19.45C16.444 19.147 16.039 17.927 16.684 16.274C16.684 16.274 17.689 15.952 19.984 17.504C20.944 17.237 21.964 17.105 22.984 17.099C24.004 17.105 25.024 17.237 25.984 17.504C28.264 15.952 29.269 16.274 29.269 16.274C29.914 17.927 29.509 19.147 29.389 19.45C30.154 20.29 30.619 21.36 30.619 22.67C30.619 27.28 27.814 28.295 25.144 28.59C25.564 28.95 25.954 29.686 25.954 30.81C25.954 32.416 25.939 33.706 25.939 34.096C25.939 34.411 26.149 34.786 26.764 34.666C31.565 33.092 35 28.592 35 23.297C35 16.67 29.627 11.297 23 11.297Z" fill="white"/>
</g>
<defs>
<clipPath id="clip0_40_46">
<rect width="24" height="24" fill="white" transform="translate(11 11)"/>
</clipPath>
</defs>
</svg>
