<svg width="45" height="45" viewBox="0 0 45 45" fill="none" xmlns="http://www.w3.org/2000/svg">
<path d="M45 22.5C45 28.7914 44.3219 36.3836 40.1596 40.4668C36.1006 44.4486 28.6351 45 22.5 45C16.3649 45 8.89936 44.4486 4.84044 40.4668C0.67812 36.3836 6.89257e-10 28.7914 6.89257e-10 22.5C6.89257e-10 16.3649 0.465272 8.81322 4.44703 4.7543C8.53022 0.591977 16.2086 0 22.5 0C28.7914 0 36.4698 0.591977 40.553 4.7543C44.5347 8.81322 45 16.3649 45 22.5Z" fill="#2196F3"/>
<path d="M23 11.2971C16.37 11.2971 11 16.6701 11 23.2971C11 28.6001 14.438 33.0971 19.205 34.6821C19.805 34.7951 20.025 34.4241 20.025 34.1051C20.025 33.8201 20.015 33.0651 20.01 32.0651C16.672 32.7891 15.968 30.4551 15.968 30.4551C15.422 29.0701 14.633 28.7001 14.633 28.7001C13.546 27.9561 14.717 27.9711 14.717 27.9711C15.922 28.0551 16.555 29.2071 16.555 29.2071C17.625 31.0421 19.364 30.5121 20.05 30.2051C20.158 29.4291 20.467 28.9001 20.81 28.6001C18.145 28.3001 15.344 27.2681 15.344 22.6701C15.344 21.3601 15.809 20.2901 16.579 19.4501C16.444 19.1471 16.039 17.9271 16.684 16.2741C16.684 16.2741 17.689 15.9521 19.984 17.5041C20.944 17.2371 21.964 17.1051 22.984 17.0991C24.004 17.1051 25.024 17.2371 25.984 17.5041C28.264 15.9521 29.269 16.2741 29.269 16.2741C29.914 17.9271 29.509 19.1471 29.389 19.4501C30.154 20.2901 30.619 21.3601 30.619 22.6701C30.619 27.2801 27.814 28.2951 25.144 28.5901C25.564 28.9501 25.954 29.6861 25.954 30.8101C25.954 32.4161 25.939 33.7061 25.939 34.0961C25.939 34.4111 26.149 34.7861 26.764 34.6661C31.565 33.0921 35 28.5921 35 23.2971C35 16.6701 29.627 11.2971 23 11.2971Z" fill="white"/>
</svg>
