<svg width="45" height="45" viewBox="0 0 45 45" fill="none" xmlns="http://www.w3.org/2000/svg">
<path d="M45 22.5C45 28.7914 44.3219 36.3836 40.1596 40.4668C36.1006 44.4486 28.6351 45 22.5 45C16.3649 45 8.89936 44.4486 4.84044 40.4668C0.67812 36.3836 6.89257e-10 28.7914 6.89257e-10 22.5C6.89257e-10 16.3649 0.465272 8.81322 4.44703 4.7543C8.53022 0.591977 16.2086 0 22.5 0C28.7914 0 36.4698 0.591977 40.553 4.7543C44.5347 8.81322 45 16.3649 45 22.5Z" fill="#2196F3"/>
<path fill-rule="evenodd" clip-rule="evenodd" d="M16.9982 22.9997C16.9982 28.3293 23.4755 31.0089 27.2438 27.2383C29.7453 30.4988 35 28.998 35 22.9997C35 16.3831 29.6168 11 23 11C16.3832 11 11 16.3831 11 22.9997C11 30.9609 18.7441 37.0603 27.0117 34.3444C27.7991 34.0858 28.2273 33.2381 27.9686 32.451C27.71 31.664 26.8625 31.2358 26.0747 31.4944C19.7948 33.5573 14.0009 28.9695 14.0009 22.9997C14.0009 18.0373 18.0376 13.9999 23 13.9999C27.9624 13.9999 31.9991 18.0373 31.9991 22.9997C31.9991 26.6996 29.2577 26.9086 29.0174 23.4618C29.0135 23.4028 29.0049 23.3454 28.9943 23.2888C29.1584 19.8533 26.408 16.9999 23 16.9999C19.6904 16.9999 16.9982 19.6912 16.9982 22.9997ZM19.999 22.9998C19.999 21.3455 21.3451 19.9999 22.9999 19.9999C24.6546 19.9999 26.0007 21.3455 26.0007 22.9998C26.0007 24.654 24.6546 25.9996 22.9999 25.9996C21.3451 25.9996 19.999 24.654 19.999 22.9998Z" fill="white"/>
</svg>
