<svg width="45" height="45" viewBox="0 0 45 45" fill="none" xmlns="http://www.w3.org/2000/svg">
<path d="M45 22.5C45 28.7914 44.3219 36.3836 40.1596 40.4668C36.1006 44.4486 28.6351 45 22.5 45C16.3649 45 8.89936 44.4486 4.84044 40.4668C0.67812 36.3836 6.89257e-10 28.7914 6.89257e-10 22.5C6.89257e-10 16.3649 0.465272 8.81322 4.44703 4.7543C8.53022 0.591977 16.2086 0 22.5 0C28.7914 0 36.4698 0.591977 40.553 4.7543C44.5347 8.81322 45 16.3649 45 22.5Z" fill="#2196F3"/>
<path d="M15.4 11C14.08 11 13.012 12.08 13.012 13.4L13 32.6C13 33.92 14.068 35 15.388 35H29.8C31.12 35 32.2 33.92 32.2 32.6V18.2L25 11H15.4ZM23.8 19.4V12.8L30.4 19.4H23.8Z" fill="white"/>
</svg>
