<svg width="407" height="407" viewBox="0 0 407 407" fill="none" xmlns="http://www.w3.org/2000/svg">
<path d="M407 203.5C407 260.402 400.867 329.07 363.221 366C326.51 402.013 258.988 407 203.5 407C148.012 407 80.4898 402.013 43.7791 366C6.13322 329.07 6.23394e-09 260.402 6.23394e-09 203.5C6.23394e-09 148.012 4.20813 79.7107 40.2209 43C77.1511 5.3541 146.598 0 203.5 0C260.402 0 329.849 5.3541 366.779 43C402.792 79.7107 407 148.012 407 203.5Z" fill="#161E2E"/>
<path d="M203.54 335.663C187.773 335.663 173.241 333.532 159.946 329.271C146.693 325.009 134.378 318.362 123 309.327V279.029C127.219 282.481 132.354 285.656 138.405 288.553C144.456 291.494 151.082 294.029 158.284 296.16C165.486 298.333 172.943 300.016 180.656 301.21C188.369 302.445 195.997 303.063 203.54 303.063C213.639 303.063 223.803 302.019 234.03 299.931C244.3 297.843 253.803 294.988 262.538 291.366C271.317 287.744 278.518 283.631 284.143 279.029V309.327C272.766 318.362 260.429 325.009 247.133 329.271C233.881 333.532 219.349 335.663 203.54 335.663Z" fill="white"/>
<path d="M202.901 204.098H217.347C217.347 211.513 218.817 216.648 221.757 219.503C224.697 222.401 229.364 223.85 235.756 223.85H247.837C256.402 223.85 263.135 225.107 268.035 227.621C272.936 230.178 276.537 233.651 278.838 238.04C281.139 242.472 282.588 247.586 283.185 253.381C283.824 259.176 284.143 265.334 284.143 271.854H261.196C261.196 266.74 260.578 262.905 259.342 260.348C258.106 257.834 256.231 256.151 253.717 255.299C251.203 254.446 248.028 254.02 244.193 254.02H227.83C224.591 254.02 221.48 253.36 218.497 252.039C215.514 250.718 212.851 248.289 210.507 244.752C208.163 241.215 206.31 236.165 204.946 229.603C203.582 223.083 202.901 214.581 202.901 204.098ZM123 271.854C123 265.334 123.32 259.176 123.959 253.381C124.555 247.586 126.004 242.472 128.305 238.04C130.606 233.651 134.207 230.178 139.108 227.621C144.008 225.107 150.741 223.85 159.307 223.85H171.324C177.758 223.85 182.425 222.401 185.322 219.503C188.263 216.648 189.733 211.513 189.733 204.098H204.243C204.243 214.581 203.54 223.083 202.133 229.603C200.77 236.165 198.916 241.215 196.572 244.752C194.271 248.289 191.629 250.718 188.646 252.039C185.663 253.36 182.553 254.02 179.314 254.02H162.95C159.115 254.02 155.94 254.446 153.426 255.299C150.912 256.151 149.037 257.834 147.801 260.348C146.565 262.905 145.947 266.74 145.947 271.854H123ZM189.733 204.098H217.347V229.603H189.733V204.098Z" fill="white"/>
<path d="M150.166 171.499C150.166 166.897 151.785 162.955 155.024 159.674C158.263 156.435 162.183 154.837 166.785 154.88C171.303 154.837 175.159 156.435 178.355 159.674C181.594 162.955 183.213 166.897 183.213 171.499C183.213 175.846 181.594 179.681 178.355 183.005C175.159 186.371 171.303 188.076 166.785 188.118C163.717 188.076 160.926 187.266 158.412 185.689C155.898 184.155 153.895 182.131 152.403 179.617C150.912 177.145 150.166 174.439 150.166 171.499ZM217.538 171.499C217.538 166.897 219.136 162.955 222.332 159.674C225.571 156.435 229.513 154.837 234.158 154.88C238.675 154.837 242.531 156.435 245.727 159.674C248.966 162.955 250.585 166.897 250.585 171.499C250.585 175.846 248.966 179.681 245.727 183.005C242.531 186.371 238.675 188.076 234.158 188.118C231.089 188.076 228.298 187.266 225.784 185.689C223.27 184.155 221.267 182.131 219.776 179.617C218.284 177.145 217.538 174.439 217.538 171.499Z" fill="white"/>
<path d="M204.243 138.756H189.733C189.733 131.384 188.263 126.249 185.322 123.351C182.425 120.453 177.758 119.004 171.324 119.004H159.307C150.741 119.004 144.008 117.726 139.108 115.169C134.207 112.655 130.606 109.182 128.305 104.75C126.004 100.361 124.555 95.2685 123.959 89.473C123.32 83.7202 123 77.5625 123 71H145.947C145.947 76.1136 146.565 79.9276 147.801 82.4418C149.037 84.9986 150.912 86.7031 153.426 87.5554C155.94 88.4077 159.115 88.8338 162.95 88.8338H179.314C182.553 88.8338 185.663 89.4943 188.646 90.8153C191.629 92.1364 194.271 94.5653 196.572 98.1023C198.916 101.639 200.77 106.668 202.133 113.188C203.54 119.75 204.243 128.273 204.243 138.756ZM284.143 71C284.143 77.5625 283.824 83.7202 283.185 89.473C282.588 95.2685 281.139 100.361 278.838 104.75C276.537 109.182 272.936 112.655 268.035 115.169C263.135 117.726 256.402 119.004 247.837 119.004H235.756C229.364 119.004 224.697 120.453 221.757 123.351C218.817 126.249 217.347 131.384 217.347 138.756H202.901C202.901 128.273 203.582 119.75 204.946 113.188C206.31 106.668 208.163 101.639 210.507 98.1023C212.851 94.5653 215.514 92.1364 218.497 90.8153C221.48 89.4943 224.591 88.8338 227.83 88.8338H244.193C248.028 88.8338 251.203 88.4077 253.717 87.5554C256.231 86.7031 258.106 84.9986 259.342 82.4418C260.578 79.9276 261.196 76.1136 261.196 71H284.143ZM217.347 138.756H189.733V113.251H217.347V138.756Z" fill="white"/>
</svg>
