<svg width="407" height="407" viewBox="0 0 407 407" fill="none" xmlns="http://www.w3.org/2000/svg">
<path d="M407 203.5C407 260.402 400.867 329.07 363.221 366C326.51 402.013 258.988 407 203.5 407C148.012 407 80.4898 402.013 43.7791 366C6.13322 329.07 6.23394e-09 260.402 6.23394e-09 203.5C6.23394e-09 148.012 4.20813 79.7107 40.2209 43C77.1511 5.3541 146.598 0 203.5 0C260.402 0 329.849 5.3541 366.779 43C402.792 79.7107 407 148.012 407 203.5Z" fill="#10B981"/>
<path d="M310.016 250.328C308.068 277.255 298.099 298.453 280.109 313.922C262.234 329.391 238.63 337.125 209.297 337.125C177.214 337.125 151.948 326.354 133.5 304.812C115.167 283.156 106 253.479 106 215.781V200.484C106 176.422 110.24 155.224 118.719 136.891C127.198 118.557 139.286 104.521 154.984 94.7812C170.797 84.9271 189.13 80 209.984 80C238.859 80 262.12 87.7344 279.766 103.203C297.411 118.672 307.609 140.385 310.359 168.344H258.797C257.536 152.188 253.01 140.5 245.219 133.281C237.542 125.948 225.797 122.281 209.984 122.281C192.797 122.281 179.906 128.469 171.312 140.844C162.833 153.104 158.479 172.182 158.25 198.078V216.984C158.25 244.026 162.318 263.792 170.453 276.281C178.703 288.771 191.651 295.016 209.297 295.016C225.224 295.016 237.083 291.406 244.875 284.188C252.781 276.854 257.307 265.568 258.453 250.328H310.016Z" fill="#047857"/>
<path d="M300.016 240.328C298.068 267.255 288.099 288.453 270.109 303.922C252.234 319.391 228.63 327.125 199.297 327.125C167.214 327.125 141.948 316.354 123.5 294.812C105.167 273.156 96 243.479 96 205.781V190.484C96 166.422 100.24 145.224 108.719 126.891C117.198 108.557 129.286 94.5208 144.984 84.7812C160.797 74.9271 179.13 70 199.984 70C228.859 70 252.12 77.7344 269.766 93.2031C287.411 108.672 297.609 130.385 300.359 158.344H248.797C247.536 142.188 243.01 130.5 235.219 123.281C227.542 115.948 215.797 112.281 199.984 112.281C182.797 112.281 169.906 118.469 161.312 130.844C152.833 143.104 148.479 162.182 148.25 188.078V206.984C148.25 234.026 152.318 253.792 160.453 266.281C168.703 278.771 181.651 285.016 199.297 285.016C215.224 285.016 227.083 281.406 234.875 274.188C242.781 266.854 247.307 255.568 248.453 240.328H300.016Z" fill="white"/>
</svg>
